<svg aria-hidden="true" style="position: absolute; width: 0; height: 0; overflow: hidden;" version="1.1" xmlns="http://www.w3.org/2000/svg" xmlns:xlink="http://www.w3.org/1999/xlink">
<defs>
<symbol id="icon-clean-tooth" viewBox="0 0 32 32">
<path d="M29.695 9.223c-1.311-1.764-2.687-2.585-4.325-2.585-1.051 0-2.092 0.343-3.1 0.675-1.040 0.343-2.116 0.696-3.232 0.696-1.097 0-2.18-0.361-3.225-0.709-1.024-0.343-2.081-0.695-3.136-0.695-1.643 0-2.984 0.837-4.219 2.636-1.937 2.825-0.832 5.861 0.057 8.299 0.401 1.101 0.78 2.14 0.78 2.924 0 3.983 0.832 10.725 3.951 10.725 2.125 0 2.757-2.385 3.369-4.692 0.649-2.448 1.176-4.051 2.504-4.051 1.235 0 1.639 1.393 2.16 3.691 0.531 2.347 1.135 5.007 3.748 5.007 3.761 0 3.953-8.896 3.953-10.68 0-0.756 0.367-1.792 0.755-2.888 0.888-2.503 1.993-5.617-0.040-8.352zM28.729 17.216c-0.42 1.185-0.817 2.305-0.817 3.245 0 4.777-0.991 9.612-2.885 9.612-1.639 0-2.136-1.652-2.707-4.175-0.48-2.12-1.025-4.523-3.2-4.523-2.249 0-2.932 2.575-3.535 4.845-0.625 2.355-1.125 3.897-2.339 3.897-1.805 0-2.883-4.911-2.883-9.657 0-0.972-0.412-2.097-0.845-3.289-0.848-2.324-1.807-4.957-0.18-7.329 1.321-1.925 2.477-2.173 3.339-2.173 0.881 0 1.812 0.311 2.797 0.64 1.128 0.376 2.293 0.765 3.564 0.765 1.288 0 2.445-0.381 3.565-0.751 0.971-0.319 1.887-0.621 2.767-0.621 0.869 0 2.049 0.245 3.469 2.155 1.691 2.28 0.735 4.979-0.111 7.359z"></path>
<path d="M7.864 7.521c0.208-0.208 0.208-0.547 0-0.755l-2.628-2.631c-0.208-0.208-0.547-0.208-0.755 0s-0.208 0.547 0 0.755l2.629 2.631c0.103 0.104 0.24 0.156 0.376 0.156s0.273-0.052 0.377-0.156z"></path>
<path d="M8.801 5.599c0.295 0 0.533-0.24 0.533-0.533v-3.717c0-0.295-0.24-0.533-0.533-0.533s-0.533 0.24-0.533 0.533v3.717c-0.001 0.295 0.239 0.533 0.533 0.533z"></path>
<path d="M5.409 7.901h-3.717c-0.295 0-0.533 0.24-0.533 0.533s0.24 0.533 0.533 0.533h3.717c0.295 0 0.533-0.24 0.533-0.533s-0.24-0.533-0.533-0.533z"></path>
</symbol>
<symbol id="icon-alignment_tooth" viewBox="0 0 32 32">
<path d="M30.952 12.298h-1.554c1.11-10.767-6.765-14.385-13.578-9.309-7.983-5.806-15.125 0.191-13.788 9.309h-1.557c-0.252 0.014-0.451 0.222-0.451 0.477s0.199 0.462 0.45 0.476l0.001 0h1.663c0.654 6.357 2.838 12.099 6.176 16.992l-0.082-0.127c0.332 0.423 0.843 0.692 1.416 0.692 0.991 0 1.794-0.802 1.796-1.792v-0c0.534-6.382 2.847-8.703 4.277-8.703s3.736 2.317 4.271 8.697c0.004 0.99 0.807 1.791 1.798 1.791 0.574 0 1.084-0.269 1.413-0.687l0.003-0.004c3.251-4.765 5.433-10.505 6.072-16.703l0.013-0.157h1.66c0.252-0.014 0.451-0.222 0.451-0.477s-0.199-0.462-0.45-0.476l-0.001-0zM22.439 29.542c-0.52 0.669-1.408 0.319-1.503-0.608-0.557-6.61-3.022-9.568-5.22-9.568s-4.666 2.959-5.22 9.574c-0.097 0.927-0.974 1.272-1.503 0.607-3.141-4.607-5.253-10.153-5.882-16.141l-0.013-0.154h5.791v1.427c0.001 1.315 1.066 2.38 2.38 2.382h8.889c1.314-0.002 2.379-1.068 2.381-2.382v-1.428h5.795c-0.642 6.141-2.754 11.685-5.974 16.414l0.079-0.124zM21.587 12.298h-3.492c-0.063-0.47 0.248-1.578-0.476-1.587s-0.417 1.113-0.477 1.587h-2.856c-0.063-0.472 0.248-1.578-0.477-1.585s-0.417 1.113-0.476 1.587h-3.492v-1.432c0.002-0.789 0.64-1.427 1.429-1.429h8.889c0.788 0.002 1.427 0.64 1.429 1.429v0zM13.333 13.251c0.063 0.473-0.248 1.576 0.476 1.586s0.417-1.113 0.477-1.586h2.856c0.063 0.473-0.248 1.576 0.477 1.586s0.417-1.113 0.476-1.586h3.492v1.427c-0.001 0.789-0.64 1.428-1.429 1.429h-8.889c-0.789-0.001-1.428-0.64-1.429-1.429v-1.428zM28.54 11.233c-0.028 0.355-0.061 0.71-0.097 1.064h-5.903v-1.429c-0.002-1.314-1.066-2.38-2.38-2.382h-8.889c-1.315 0.002-2.38 1.067-2.381 2.382v1.429h-5.899c-0.776-4.671 1.22-10.673 6.549-10.663 4.345 0.008 8.467 4.461 8.508 4.505 0.408 0.462 1.128-0.192 0.703-0.641-0.65-0.688-1.344-1.317-2.085-1.889l-0.041-0.031c5.877-4.296 12.392-1.272 11.917 7.655z"></path>
</symbol>
<symbol id="icon-tooth-brush" viewBox="0 0 32 32">
<path fill="#ff3a2f" style="fill: var(--color1, #ff3a2f)" d="M14.562 26.197h-2.359c-0.455 0-0.824 0.279-0.824 0.623s0.369 0.624 0.824 0.624h0.11c0.455 0 0.824 0.279 0.824 0.623s-0.369 0.623-0.824 0.623h-5.071c-0.455 0-0.824 0.279-0.824 0.623s0.369 0.623 0.824 0.623h18.552c0.455 0 0.824-0.279 0.824-0.623s-0.369-0.623-0.824-0.623h-1.408c-0.455 0-0.824-0.279-0.824-0.623s0.369-0.623 0.824-0.623h5.528c0.455 0 0.824-0.279 0.824-0.624s-0.369-0.623-0.824-0.623h-15.352z"></path>
<path fill="#ff3a2f" style="fill: var(--color1, #ff3a2f)" d="M29.193 30.105c-0.381 0-0.691-0.299-0.691-0.668s0.309-0.668 0.691-0.668h2.116c0.381 0 0.691 0.299 0.691 0.668s-0.309 0.668-0.691 0.668h-2.116z"></path>
<path fill="#0cb04a" style="fill: var(--color2, #0cb04a)" d="M19.575 28.885l-8.453-10.826-11.122-8.749 2.373-2.372 20.169 20.168-2.966 1.779z"></path>
<path fill="#000" opacity="0.35" style="fill: var(--color3, #000)" d="M21.8 26.364l-2.224 1.335-8.453-10.826-10.458-8.227-0.664 0.664 11.122 8.749 8.453 10.825 2.966-1.779-0.742-0.742z"></path>
<path fill="#fbb713" style="fill: var(--color4, #fbb713)" d="M12.012 16.576l-8.75-8.749 1.78-5.932 12.605 12.605-5.635 2.076z"></path>
<path fill="#010101" opacity="0.35" style="fill: var(--color5, #010101)" d="M15.754 12.607l-2.904 1.070c-0.872 0.321-1.851 0.106-2.508-0.551l-6.911-5.857-0.167 0.558 8.75 8.749 5.635-2.076-1.894-1.894z"></path>
<path fill="#142a3b" style="fill: var(--color6, #142a3b)" d="M10.991 14.247c-0.208 0-0.406-0.123-0.492-0.327-0.114-0.271 0.014-0.584 0.286-0.698l3.675-1.54c0.271-0.114 0.584 0.014 0.698 0.286s-0.014 0.584-0.286 0.698l-3.675 1.541c-0.067 0.028-0.137 0.042-0.206 0.042z"></path>
<path fill="#142a3b" style="fill: var(--color6, #142a3b)" d="M6.125 9.383c-0.069 0-0.138-0.014-0.206-0.042-0.272-0.114-0.399-0.426-0.286-0.698l1.541-3.675c0.114-0.271 0.426-0.399 0.698-0.286s0.4 0.427 0.286 0.698l-1.541 3.675c-0.086 0.204-0.284 0.327-0.492 0.327z"></path>
<path fill="#142a3b" style="fill: var(--color6, #142a3b)" d="M9.057 11.337c-0.134 0-0.269-0.051-0.373-0.152-0.21-0.206-0.214-0.544-0.008-0.754l2.202-2.246c0.207-0.211 0.543-0.213 0.755-0.008s0.213 0.544 0.007 0.754l-2.202 2.246c-0.104 0.107-0.243 0.16-0.381 0.16z"></path>
</symbol>
<symbol id="icon-teeth" viewBox="0 0 32 32">
<path d="M28.988 4.202c-0.084-0.086-0.201-0.139-0.331-0.139-0.005 0-0.009 0-0.014 0h0.001c-0.135 0.003-0.294 0.005-0.454 0.005-4.508 0-8.668-1.495-12.010-4.015l0.051 0.037c-0.362-0.305-0.861 0.259-1.152 0.417-3.142 2.232-7.057 3.567-11.283 3.567-0.184 0-0.367-0.003-0.55-0.008l0.027 0.001c-0.004-0-0.008-0-0.013-0-0.263 0-0.477 0.213-0.477 0.476v13.078c0 7.513 12.441 13.512 12.971 13.764 0.060 0.029 0.13 0.046 0.204 0.046s0.144-0.017 0.207-0.047l-0.003 0.001c0.53-0.252 12.971-6.247 12.971-13.764v-13.078c-0-0.134-0.055-0.255-0.145-0.341l-0-0zM28.179 17.621c0 5.967-9.152 11.196-11.745 12.558v-9.526c0-0.008 0.001-0.017 0.001-0.026 0-0.264-0.214-0.477-0.477-0.477s-0.477 0.214-0.477 0.477c0 0.009 0 0.018 0.001 0.027l-0-0.001v9.526c-2.593-1.361-11.745-6.586-11.745-12.558v-12.594c0.018 0 0.040 0 0.062 0 4.369 0 8.42-1.364 11.75-3.689l-0.067 0.044v5.446c-0 0.008-0.001 0.017-0.001 0.026 0 0.264 0.214 0.477 0.477 0.477s0.477-0.214 0.477-0.477c0-0.009-0-0.018-0.001-0.027l0 0.001v-5.447c3.284 2.281 7.356 3.644 11.745 3.645h0zM16.057 9.002c-4-3.019-8.634-0.739-8.173 4.37 0.257 3.782 1.586 7.211 3.683 10.036l-0.036-0.051c0.223 0.279 0.564 0.456 0.946 0.456 0.129 0 0.253-0.020 0.369-0.057l-0.009 0.002c0.488-0.157 0.842-0.589 0.883-1.109l0-0.004c0.32-3.519 1.713-5.333 2.237-5.333s1.916 1.809 2.237 5.331c0.044 0.522 0.398 0.951 0.876 1.104l0.009 0.002c0.108 0.035 0.233 0.056 0.362 0.056 0.381 0 0.72-0.177 0.941-0.453l0.002-0.002c2.061-2.774 3.39-6.203 3.643-9.927l0.003-0.058c0.358-5.35-4.275-7.243-7.975-4.363zM23.083 13.294c-0.237 3.582-1.489 6.831-3.468 9.51l0.035-0.049c-0.049 0.064-0.126 0.105-0.212 0.105-0.028 0-0.055-0.004-0.081-0.013l0.002 0.001c-0.12-0.040-0.207-0.148-0.214-0.277l-0-0.001c-0.313-3.418-1.742-6.198-3.186-6.198s-2.874 2.783-3.186 6.2c-0.051 0.31-0.321 0.383-0.505 0.188-2.002-2.446-5.073-9.83-2.411-13.135 2.504-2.773 6.678 0.775 7.285 1.53 0.085 0.079 0.199 0.127 0.324 0.127 0.263 0 0.476-0.213 0.476-0.476 0-0.113-0.039-0.216-0.105-0.298l0.001 0.001c-0.303-0.32-0.621-0.616-0.956-0.893l-0.018-0.014c3.019-2.175 6.481-0.749 6.221 3.693zM13.276 11.421c-0.125-0.039-0.269-0.062-0.418-0.062-0.308 0-0.594 0.097-0.828 0.263l0.005-0.003c-0.843 0.696-0.579 2.023-0.452 2.989 0.005 0.026 0.008 0.057 0.008 0.088 0 0.263-0.213 0.476-0.476 0.476-0.232 0-0.425-0.166-0.468-0.386l-0-0.003c-0.513-2.067 0.121-4.917 2.879-4.281 0.191 0.065 0.326 0.243 0.326 0.452 0 0.264-0.214 0.477-0.477 0.477-0.034 0-0.068-0.004-0.101-0.011l0.003 0.001z"></path>
</symbol>
<symbol id="icon-monitoring_teeth" viewBox="0 0 32 32">
<path d="M30.221 0h-28.443c-0.982 0.001-1.777 0.796-1.778 1.778v28.445c0.001 0.982 0.796 1.777 1.778 1.778h28.443c0.982-0.001 1.777-0.796 1.778-1.778v-28.444c-0.001-0.982-0.796-1.777-1.778-1.778h-0zM31.030 30.222c-0.001 0.446-0.363 0.807-0.809 0.807h-28.443c-0.446 0-0.807-0.361-0.807-0.807v0-2.101h30.059zM31.030 27.151h-30.059v-22.302h30.059zM31.030 3.879h-30.059v-2.101c0-0.446 0.361-0.807 0.807-0.807v0h28.443c0 0 0 0 0 0 0.446 0 0.808 0.361 0.809 0.807v0zM6.329 23.77c0.22 0.278 0.557 0.454 0.935 0.454 0.648 0 1.174-0.517 1.19-1.161l0-0.001c0.295-3.524 1.585-5.427 2.048-5.427s1.752 1.902 2.047 5.425c0.032 0.537 0.392 0.981 0.881 1.139l0.009 0.003c1.442 0.265 1.888-1.594 2.55-2.631 0.645 1.023 1.010 2.537 2.276 2.674 0.636-0.038 1.142-0.547 1.174-1.181l0-0.003c0.295-3.524 1.585-5.427 2.048-5.427s1.752 1.902 2.047 5.425c0.030 0.649 0.554 1.167 1.204 1.186l0.002 0c0.379-0.004 0.714-0.19 0.921-0.475l0.002-0.003c1.938-2.864 3.176-6.344 3.397-10.098l0.003-0.056c0.375-4.901-3.557-7.637-7.478-4.462-1.417-1.077-3.595-2.078-5.556-0.783-1.602-1.316-4.517-0.076-5.43 0.786-1.793-1.472-4.719-2.125-6.46-0.024-2.952 3.811 0.065 11.715 2.189 14.64zM22.556 11.351c0.089 0.093 0.213 0.15 0.352 0.15 0.268 0 0.486-0.218 0.486-0.486 0-0.11-0.036-0.211-0.097-0.292l0.001 0.001c-0.295-0.337-0.599-0.644-0.922-0.932l-0.010-0.009c1.118-0.936 3.564-1.7 4.768-0.013 0.625 0.9 0.999 2.015 0.999 3.217 0 0.195-0.010 0.387-0.029 0.577l0.002-0.024c-0.206 3.616-1.375 6.922-3.252 9.712l0.044-0.069c-0.153 0.198-0.358 0.058-0.387-0.204-0.296-3.541-1.621-6.315-3.013-6.315s-2.718 2.775-3.016 6.316c-0.246 1.217-1.7-2.040-1.958-2.592 1.133-3.408 2.803-7.977 0.275-11.332 2.609-1.354 5.726 2.255 5.758 2.293zM4.849 9.793c2.317-2.808 6.18 0.84 6.712 1.558 0.089 0.093 0.213 0.15 0.352 0.15 0.268 0 0.486-0.218 0.486-0.486 0-0.11-0.036-0.211-0.097-0.292l0.001 0.001c-0.294-0.336-0.599-0.643-0.921-0.928l-0.011-0.009c3.172-2.436 6.006-0.29 5.74 3.755-0.354 3.683-1.417 7.689-3.4 9.729-0.114-0.047-0.193-0.157-0.193-0.285 0-0.002 0-0.004 0-0.005v0c-0.296-3.541-1.619-6.315-3.013-6.315s-2.713 2.775-3.013 6.316c-0.001 0.127-0.079 0.236-0.189 0.283l-0.002 0.001c-2.087-1.956-4.901-10.417-2.446-13.479zM5.502 15.052c-0.174-1.366-0.414-2.989 0.806-4.010 0.517-0.458 2.388-0.812 2.266 0.265-0.283 0.73-1.108-0.061-1.7 0.521-0.756 0.628-0.551 2.125-0.425 3.061 0.004 0.024 0.007 0.053 0.007 0.081 0 0.268-0.217 0.485-0.485 0.485-0.239 0-0.438-0.173-0.478-0.401l-0-0.003z"></path>
</symbol>
<symbol id="icon-tooth_hehy" viewBox="0 0 32 32">
<path d="M28.988 4.202c-0.084-0.086-0.201-0.139-0.331-0.139-0.005 0-0.009 0-0.014 0h0.001c-0.135 0.003-0.294 0.005-0.454 0.005-4.508 0-8.668-1.495-12.010-4.015l0.051 0.037c-0.362-0.305-0.861 0.259-1.152 0.417-3.142 2.232-7.057 3.567-11.283 3.567-0.184 0-0.367-0.003-0.55-0.008l0.027 0.001c-0.004-0-0.008-0-0.013-0-0.263 0-0.477 0.213-0.477 0.476v13.078c0 7.513 12.441 13.512 12.971 13.764 0.060 0.029 0.13 0.046 0.204 0.046s0.144-0.017 0.207-0.047l-0.003 0.001c0.53-0.252 12.971-6.247 12.971-13.764v-13.078c-0-0.134-0.055-0.255-0.145-0.341l-0-0zM28.179 17.621c0 5.967-9.152 11.196-11.745 12.558v-9.526c0-0.008 0.001-0.017 0.001-0.026 0-0.264-0.214-0.477-0.477-0.477s-0.477 0.214-0.477 0.477c0 0.009 0 0.018 0.001 0.027l-0-0.001v9.526c-2.593-1.361-11.745-6.586-11.745-12.558v-12.594c0.018 0 0.040 0 0.062 0 4.369 0 8.42-1.364 11.75-3.689l-0.067 0.044v5.446c-0 0.008-0.001 0.017-0.001 0.026 0 0.264 0.214 0.477 0.477 0.477s0.477-0.214 0.477-0.477c0-0.009-0-0.018-0.001-0.027l0 0.001v-5.447c3.284 2.281 7.356 3.644 11.745 3.645h0zM16.057 9.002c-4-3.019-8.634-0.739-8.173 4.37 0.257 3.782 1.586 7.211 3.683 10.036l-0.036-0.051c0.223 0.279 0.564 0.456 0.946 0.456 0.129 0 0.253-0.020 0.369-0.057l-0.009 0.002c0.488-0.157 0.842-0.589 0.883-1.109l0-0.004c0.32-3.519 1.713-5.333 2.237-5.333s1.916 1.809 2.237 5.331c0.044 0.522 0.398 0.951 0.876 1.104l0.009 0.002c0.108 0.035 0.233 0.056 0.362 0.056 0.381 0 0.72-0.177 0.941-0.453l0.002-0.002c2.061-2.774 3.39-6.203 3.643-9.927l0.003-0.058c0.358-5.35-4.275-7.243-7.975-4.363zM23.083 13.294c-0.237 3.582-1.489 6.831-3.468 9.51l0.035-0.049c-0.049 0.064-0.126 0.105-0.212 0.105-0.028 0-0.055-0.004-0.081-0.013l0.002 0.001c-0.12-0.040-0.207-0.148-0.214-0.277l-0-0.001c-0.313-3.418-1.742-6.198-3.186-6.198s-2.874 2.783-3.186 6.2c-0.051 0.31-0.321 0.383-0.505 0.188-2.002-2.446-5.073-9.83-2.411-13.135 2.504-2.773 6.678 0.775 7.285 1.53 0.085 0.079 0.199 0.127 0.324 0.127 0.263 0 0.476-0.213 0.476-0.476 0-0.113-0.039-0.216-0.105-0.298l0.001 0.001c-0.303-0.32-0.621-0.616-0.956-0.893l-0.018-0.014c3.019-2.175 6.481-0.749 6.221 3.693zM13.276 11.421c-0.125-0.039-0.269-0.062-0.418-0.062-0.308 0-0.594 0.097-0.828 0.263l0.005-0.003c-0.843 0.696-0.579 2.023-0.452 2.989 0.005 0.026 0.008 0.057 0.008 0.088 0 0.263-0.213 0.476-0.476 0.476-0.232 0-0.425-0.166-0.468-0.386l-0-0.003c-0.513-2.067 0.121-4.917 2.879-4.281 0.191 0.065 0.326 0.243 0.326 0.452 0 0.264-0.214 0.477-0.477 0.477-0.034 0-0.068-0.004-0.101-0.011l0.003 0.001z"></path>
</symbol>
<symbol id="icon-teeth-care" viewBox="0 0 32 32">
<path d="M29.617 7.613c-2.783-3.745-5.411-2.88-7.949-2.043-1.123 0.369-2.284 0.751-3.493 0.751-0.772 0-1.52-0.164-2.229-0.368 0.055-0.367 0.087-0.744 0.087-1.137 0-2.212-1.8-4.013-4.012-4.013-1.421 0-2.684 0.729-3.399 1.873-0.724-1.144-1.993-1.872-3.417-1.872-2.232 0-4.049 1.816-4.049 4.049 0 3.535 2.507 6.009 4.581 7.457 0.167 1.487 0.68 2.933 1.147 4.216 0.433 1.189 0.843 2.312 0.843 3.163 0 4.273 0.888 11.508 4.213 11.508 2.256 0 2.933-2.553 3.589-5.023 0.704-2.653 1.276-4.392 2.735-4.392 1.36 0 1.801 1.513 2.365 4.005 0.569 2.512 1.215 5.36 3.995 5.36 3.861 0 4.193-8.821 4.212-11.192 0-0.003 0.001-0.004 0.001-0.007s-0.001-0.004-0.001-0.007c0-0.087 0.001-0.185 0.001-0.253 0-0.821 0.397-1.94 0.817-3.124 0.955-2.685 2.14-6.025-0.036-8.952zM2.223 4.853c0-1.644 1.337-2.981 2.983-2.981 1.393 0 2.587 0.948 2.903 2.305 0.056 0.241 0.272 0.413 0.52 0.413h0.001c0.248-0.003 0.463-0.175 0.517-0.419 0.299-1.333 1.507-2.301 2.873-2.301 1.624 0 2.945 1.321 2.945 2.945 0 4.751-5.223 7.429-6.329 7.944-1.113-0.521-6.413-3.248-6.413-7.907zM28.649 16.208c-0.413 1.161-0.788 2.257-0.853 3.207h-1.168l-0.917-1.653c-0.144-0.259-0.471-0.349-0.725-0.207-0.257 0.143-0.351 0.468-0.207 0.725l0.631 1.136h-0.164c-0.020 0-0.035 0.009-0.053 0.011-0.032 0.004-0.064 0.011-0.095 0.020-0.037 0.012-0.072 0.025-0.105 0.044-0.015 0.007-0.029 0.008-0.043 0.017l-1.985 1.333c-0.245 0.164-0.309 0.496-0.145 0.74 0.103 0.153 0.271 0.237 0.443 0.237 0.103 0 0.205-0.029 0.297-0.091l1.851-1.243h2.356c-0.099 4.764-1.089 9.596-3.139 9.596-1.795 0-2.335-1.792-2.955-4.528-0.539-2.377-1.096-4.837-3.405-4.837-2.389 0-3.12 2.755-3.767 5.187-0.677 2.555-1.223 4.228-2.557 4.228-1.969 0-3.147-5.308-3.147-10.44 0-1.039-0.44-2.248-0.907-3.528-0.351-0.964-0.735-2.023-0.957-3.091 0.817 0.472 1.421 0.733 1.504 0.767 0.065 0.028 0.135 0.041 0.204 0.041s0.137-0.015 0.203-0.040c0.255-0.104 5.511-2.313 6.871-6.844 0.771 0.22 1.589 0.395 2.465 0.395 1.38 0 2.624-0.411 3.827-0.805 1.987-0.655 3.637-1.195 5.411 0.224l-3.192 3.192h-2.14c-0.295 0-0.533 0.24-0.533 0.533s0.24 0.533 0.533 0.533h1.6l-0.92 2.533c-0.1 0.276 0.041 0.583 0.319 0.683 0.060 0.024 0.123 0.032 0.183 0.032 0.217 0 0.421-0.135 0.501-0.351l1.14-3.139 0.88-0.881v3.115c0 0.295 0.24 0.532 0.533 0.532s0.533-0.239 0.533-0.532v-4.183l1.332-1.333c0.192 0.212 0.384 0.44 0.58 0.704 1.832 2.472 0.797 5.388-0.116 7.96z"></path>
</symbol>
<symbol id="icon-icon-send" viewBox="0 0 32 32">
<path fill="#fff" style="fill: var(--color7, #fff)" d="M32 0l-32 18 10.227 3.788 15.773-14.788-11.998 16.186 0.010 0.004-0.012-0.004v8.814l5.735-6.691 7.265 2.691 5-28z"></path>
</symbol>
<symbol id="icon-email" viewBox="0 0 32 32">
<path d="M26.667 5.333h-21.333c-1.467 0-2.653 1.2-2.653 2.667l-0.013 16c0 1.467 1.2 2.667 2.667 2.667h21.333c1.467 0 2.667-1.2 2.667-2.667v-16c0-1.467-1.2-2.667-2.667-2.667zM26.133 11l-9.427 5.893c-0.427 0.267-0.987 0.267-1.413 0l-9.427-5.893c-0.333-0.213-0.533-0.573-0.533-0.96 0-0.893 0.973-1.427 1.733-0.96l8.933 5.587 8.933-5.587c0.76-0.467 1.733 0.067 1.733 0.96 0 0.387-0.2 0.747-0.533 0.96z"></path>
</symbol>
<symbol id="icon-person" viewBox="0 0 32 32">
<path d="M16 16c2.947 0 5.333-2.387 5.333-5.333s-2.387-5.333-5.333-5.333c-2.947 0-5.333 2.387-5.333 5.333s2.387 5.333 5.333 5.333zM16 18.667c-3.56 0-10.667 1.787-10.667 5.333v1.333c0 0.733 0.6 1.333 1.333 1.333h18.667c0.733 0 1.333-0.6 1.333-1.333v-1.333c0-3.547-7.107-5.333-10.667-5.333z"></path>
</symbol>
<symbol id="icon-phone" viewBox="0 0 32 32">
<path d="M24.882 19.773l-3.268-0.373c-0.785-0.090-1.557 0.18-2.11 0.733l-2.367 2.367c-3.641-1.853-6.626-4.825-8.478-8.478l2.38-2.38c0.553-0.553 0.823-1.325 0.733-2.11l-0.373-3.242c-0.154-1.299-1.248-2.277-2.56-2.277h-2.226c-1.454 0-2.663 1.209-2.573 2.663 0.682 10.987 9.469 19.761 20.443 20.443 1.454 0.090 2.663-1.119 2.663-2.573v-2.226c0.013-1.3-0.965-2.393-2.264-2.547z"></path>
</symbol>
</defs>
</svg>
